<svg width="33" height="33" viewBox="0 0 33 33" fill="none" xmlns="http://www.w3.org/2000/svg">
<path fill-rule="evenodd" clip-rule="evenodd" d="M20.7214 11.6295C21.1241 8.87728 21.7954 8.1053 24.1449 7.6354C24.4134 7.60184 24.4134 7.19907 24.1449 7.13194C21.7954 6.62848 21.1241 5.8565 20.7214 3.10424C20.6878 2.80217 20.2515 2.80217 20.2179 3.10424C19.8151 5.8565 19.1103 6.62848 16.7944 7.09838C16.5258 7.16551 16.5258 7.53471 16.7944 7.60184C19.1438 8.1053 19.8151 8.87728 20.2179 11.6295C20.2515 11.9316 20.6878 11.9316 20.7214 11.6295ZM11.0221 30.258C12.029 21.0614 13.3716 19.4839 20.9235 18.2421C21.192 18.1749 21.192 17.7722 20.9235 17.7386C13.3716 16.4632 12.029 14.9528 11.0221 5.75619C10.9885 5.45411 10.5522 5.45411 10.5186 5.75619C9.51168 14.9528 8.16912 16.4967 0.617183 17.7386C0.315106 17.7722 0.315106 18.2085 0.617183 18.2421C8.16912 19.5175 9.51168 21.0614 10.5186 30.258C10.5522 30.5601 10.9885 30.5601 11.0221 30.258Z" fill="url(#paint0_linear_2151_12459)"/>
<defs>
<linearGradient id="paint0_linear_2151_12459" x1="12.3685" y1="2.87769" x2="12.3685" y2="30.4846" gradientUnits="userSpaceOnUse">
<stop stop-color="#1BD6FF"/>
<stop offset="1" stop-color="#1B10FA"/>
</linearGradient>
</defs>
</svg>
