<svg width="25" height="24" viewBox="0 0 25 24" fill="none" xmlns="http://www.w3.org/2000/svg"><path d="M15.6031 19.0157C15.5542 19.0157 15.4993 19.0096 15.4504 18.9913C13.9969 18.4661 12.7205 17.8798 11.609 17.2507C10.1494 17.8981 8.83635 18.2462 7.82256 18.4355C5.81331 18.802 4.50027 18.6493 4.44531 18.6432C4.19492 18.6126 4.01781 18.3806 4.04835 18.1302C4.07888 17.8798 4.31095 17.7027 4.56135 17.7332C4.57356 17.7332 5.81942 17.8798 7.70042 17.5317C8.51267 17.379 9.52035 17.1164 10.6441 16.6706C6.61335 14.0689 5.12931 10.9176 5.19038 8.61523C5.23924 6.89912 6.13088 5.56775 7.52331 5.15247C8.49435 4.85933 9.3921 4.95093 10.1982 5.42118C11.322 6.07465 12.006 7.34494 12.3785 8.27933C12.5861 7.89458 12.8671 7.44876 13.2213 7.02126C14.4794 5.49447 16.0489 4.91429 17.7711 5.3479C18.9498 5.64715 19.7193 6.40444 19.9392 7.49151C20.1468 8.52362 19.8475 9.75726 19.078 11.0703C18.278 12.4261 16.9894 13.7941 15.3588 15.0338C14.4305 15.7423 13.5083 16.3102 12.6289 16.7683C13.5877 17.2752 14.6381 17.7332 15.7619 18.1363C16 18.2218 16.1222 18.4844 16.0367 18.7226C15.9695 18.8997 15.7924 19.0157 15.6031 19.0157ZM8.60428 5.89143C8.34167 5.89143 8.07296 5.93418 7.78592 6.01969C6.76603 6.32504 6.13699 7.30219 6.10035 8.63355C6.0576 10.1542 6.79046 11.8398 8.15846 13.391C9.06842 14.4231 10.2532 15.3758 11.664 16.2186C12.6594 15.7423 13.7282 15.1193 14.803 14.2949C16.342 13.1223 17.5452 11.8459 18.2841 10.5939C18.9315 9.50076 19.2002 8.46255 19.0414 7.66862C18.8887 6.92965 18.3879 6.44719 17.5452 6.23344C16.1833 5.88533 14.974 6.34336 13.9419 7.58312C13.1297 8.56026 12.7388 9.67787 12.7388 9.69008C12.6716 9.88551 12.4823 10.0077 12.2808 10.0015C12.0731 9.98933 11.9021 9.84276 11.8594 9.64733C11.8533 9.6229 11.267 7.11287 9.7341 6.21511C9.37989 5.99526 9.00125 5.89143 8.60428 5.89143Z" fill="white" stroke="white" stroke-width="0.2" stroke-miterlimit="10"></path></svg>