<svg width="19" height="19" viewBox="0 0 19 19" fill="none" xmlns="http://www.w3.org/2000/svg" class="hover:fill-white hover:stroke-black"><rect x="0.801562" y="0.881152" width="16.6" height="16.6" rx="8.3" stroke="white" stroke-width="1.4"></rect><path d="M9.10156 4.28125C9.3389 4.28125 9.57091 4.35163 9.76825 4.48349C9.96559 4.61534 10.1194 4.80276 10.2102 5.02203C10.301 5.2413 10.3248 5.48258 10.2785 5.71536C10.2322 5.94814 10.1179 6.16195 9.95009 6.32978C9.78227 6.4976 9.56845 6.61189 9.33567 6.65819C9.10289 6.7045 8.86161 6.68073 8.64234 6.58991C8.42307 6.49908 8.23566 6.34527 8.1038 6.14793C7.97194 5.9506 7.90156 5.71859 7.90156 5.48125C7.90156 5.16299 8.02799 4.85777 8.25303 4.63272C8.47808 4.40768 8.7833 4.28125 9.10156 4.28125ZM10.3016 14.0813H7.90156C7.68939 14.0813 7.48591 13.997 7.33588 13.8469C7.18585 13.6969 7.10156 13.4934 7.10156 13.2812C7.10156 13.0691 7.18585 12.8656 7.33588 12.7156C7.48591 12.5655 7.68939 12.4812 7.90156 12.4812H8.30156V9.13196C8.14906 9.0439 8.02987 8.90798 7.96249 8.74528C7.8951 8.58258 7.88328 8.4022 7.92886 8.2321C7.97444 8.062 8.07487 7.91169 8.21458 7.80448C8.35428 7.69728 8.52546 7.63916 8.70156 7.63916H9.10156C9.31374 7.63916 9.51722 7.72344 9.66725 7.87347C9.81728 8.0235 9.90156 8.22698 9.90156 8.43916V12.4812H10.3016C10.5137 12.4812 10.7172 12.5655 10.8672 12.7156C11.0173 12.8656 11.1016 13.0691 11.1016 13.2812C11.1016 13.4934 11.0173 13.6969 10.8672 13.8469C10.7172 13.997 10.5137 14.0813 10.3016 14.0813Z" fill="currentColor"></path></svg>