<svg width="25" height="24" viewBox="0 0 25 24" fill="none" xmlns="http://www.w3.org/2000/svg"><path d="M10.792 19.0945C6.87382 19.0945 3.69751 15.9182 3.69751 12C3.69751 8.08183 6.87382 4.90552 10.792 4.90552C14.7102 4.90552 17.8865 8.08183 17.8865 12V19.0945M17.8865 19.0945L20.3507 16.6303M17.8865 19.0945L15.4223 16.6303" stroke="white" stroke-opacity="0.75" stroke-width="1.2" stroke-linecap="round" stroke-linejoin="round"></path><path d="M13.3096 13.5943C13.4697 12.426 12.5836 11.4019 11.4356 11.3619L10.5646 11.3316C10.2039 11.3191 9.92147 11.0162 9.93402 10.6556C9.94657 10.295 10.2494 10.0125 10.61 10.0251L12.3783 10.0782C12.7389 10.0908 13.0418 9.80831 13.0543 9.44771C13.0669 9.0871 12.7844 8.78425 12.4238 8.7717L11.7443 8.75642L11.7519 8.53867C11.7644 8.17806 11.4819 7.87521 11.1213 7.86266C10.7607 7.85011 10.4579 8.13259 10.4453 8.49319L10.4369 8.73447C9.39021 8.81577 8.55745 9.71555 8.63081 10.8152C8.69896 11.8388 9.60973 12.6065 10.6349 12.6422L11.3901 12.6685C11.7507 12.681 12.0332 12.9847 12.0206 13.3445C12.0081 13.7042 11.7052 13.9876 11.3446 13.975L9.58898 13.922C9.22837 13.9094 8.92552 14.1919 8.91297 14.5525C8.90042 14.9131 9.1829 15.216 9.54351 15.2285L10.2104 15.2436L10.2028 15.4614C10.1902 15.822 10.4727 16.1249 10.8333 16.1374C11.1939 16.15 11.4968 15.8675 11.5093 15.5069L11.5179 15.2595C12.4095 15.151 13.1857 14.4987 13.3096 13.5943Z" fill="white" fill-opacity="0.75"></path></svg>