<svg width="44" height="44" viewBox="0 0 44 44" fill="none" xmlns="http://www.w3.org/2000/svg">
<path d="M32.394 12.4642C30.4823 11.5871 28.4323 10.9408 26.2889 10.5706C26.2499 10.5635 26.2108 10.5814 26.1908 10.617C25.9271 11.086 25.635 11.6977 25.4305 12.1785C23.1252 11.8334 20.8316 11.8334 18.5735 12.1785C18.3689 11.687 18.0663 11.086 17.8014 10.617C17.7814 10.5825 17.7423 10.5647 17.7033 10.5706C15.5611 10.9396 13.5111 11.5859 11.5982 12.4642C11.5816 12.4714 11.5674 12.4833 11.558 12.4987C7.66957 18.308 6.60433 23.9745 7.12687 29.5707C7.12922 29.598 7.14462 29.6242 7.16589 29.6409C9.73136 31.525 12.2165 32.6687 14.6554 33.4269C14.6945 33.4388 14.7358 33.4245 14.7607 33.3924C15.3376 32.6045 15.8519 31.7737 16.2928 30.9001C16.3188 30.849 16.294 30.7882 16.2408 30.768C15.425 30.4586 14.6483 30.0813 13.9011 29.6529C13.842 29.6184 13.8372 29.5338 13.8917 29.4933C14.0489 29.3755 14.2062 29.2529 14.3563 29.1291C14.3835 29.1065 14.4213 29.1018 14.4533 29.116C19.3619 31.3572 24.6762 31.3572 29.5269 29.116C29.5588 29.1006 29.5967 29.1054 29.625 29.1279C29.7752 29.2517 29.9325 29.3755 30.0909 29.4933C30.1452 29.5338 30.1417 29.6183 30.0826 29.6528C29.3354 30.0896 28.5587 30.4585 27.7418 30.7668C27.6886 30.787 27.6649 30.8489 27.691 30.9001C28.1414 31.7725 28.6557 32.6032 29.2219 33.3911C29.2456 33.4245 29.2881 33.4388 29.3272 33.4268C31.7779 32.6687 34.2631 31.5249 36.8285 29.6408C36.851 29.6242 36.8652 29.5992 36.8676 29.5718C37.493 23.102 35.8201 17.482 32.4329 12.4999C32.4247 12.4833 32.4105 12.4714 32.394 12.4642ZM17.0259 26.1631C15.5481 26.1631 14.3304 24.8064 14.3304 23.1401C14.3304 21.4739 15.5244 20.1171 17.0259 20.1171C18.5392 20.1171 19.7451 21.4858 19.7215 23.1401C19.7215 24.8064 18.5273 26.1631 17.0259 26.1631ZM26.9923 26.1631C25.5145 26.1631 24.2967 24.8064 24.2967 23.1401C24.2967 21.4739 25.4908 20.1171 26.9923 20.1171C28.5056 20.1171 29.7115 21.4858 29.6878 23.1401C29.6878 24.8064 28.5056 26.1631 26.9923 26.1631Z" fill="white"/>
</svg>
