<svg width="186" height="22" viewBox="0 0 186 22" fill="none" xmlns="http://www.w3.org/2000/svg">
<path d="M39.9098 20.5911C39.752 20.5911 39.6229 20.5408 39.5224 20.4404C39.422 20.34 39.3718 20.2108 39.3718 20.053V6.06363C39.3718 5.9058 39.422 5.77667 39.5224 5.67623C39.6229 5.5758 39.752 5.52558 39.9098 5.52558H49.7885C49.9463 5.52558 50.0755 5.5758 50.1759 5.67623C50.2907 5.77667 50.3481 5.9058 50.3481 6.06363V8.23737C50.3481 8.3952 50.2907 8.52433 50.1759 8.62476C50.0755 8.7252 49.9463 8.77542 49.7885 8.77542H43.1597V11.9392H49.358C49.5159 11.9392 49.645 11.9966 49.7454 12.1113C49.8602 12.2118 49.9176 12.3409 49.9176 12.4987V14.651C49.9176 14.7944 49.8602 14.9236 49.7454 15.0384C49.645 15.1388 49.5159 15.189 49.358 15.189H43.1597V20.053C43.1597 20.2108 43.1095 20.34 43.009 20.4404C42.9086 20.5408 42.7795 20.5911 42.6216 20.5911H39.9098ZM56.4239 20.8063C55.606 20.8063 54.8743 20.6198 54.2286 20.2467C53.5973 19.8737 53.1023 19.3284 52.7436 18.611C52.3849 17.8793 52.2055 16.9897 52.2055 15.9423V9.93761C52.2055 9.77978 52.2557 9.65065 52.3562 9.55022C52.4566 9.44978 52.5857 9.39956 52.7436 9.39956H55.4338C55.5917 9.39956 55.7208 9.44978 55.8212 9.55022C55.9217 9.65065 55.9719 9.77978 55.9719 9.93761V15.8132C55.9719 17.2193 56.6032 17.9223 57.8658 17.9223C58.4541 17.9223 58.9204 17.743 59.2648 17.3843C59.6235 17.0112 59.8028 16.4875 59.8028 15.8132V9.93761C59.8028 9.77978 59.8531 9.65065 59.9535 9.55022C60.0539 9.44978 60.1831 9.39956 60.3409 9.39956H63.0312C63.189 9.39956 63.3181 9.44978 63.4186 9.55022C63.519 9.65065 63.5692 9.77978 63.5692 9.93761V20.053C63.5692 20.2108 63.519 20.34 63.4186 20.4404C63.3181 20.5408 63.189 20.5911 63.0312 20.5911H60.5346C60.3911 20.5911 60.262 20.5408 60.1472 20.4404C60.0468 20.34 59.9965 20.2108 59.9965 20.053V19.2352C59.6235 19.7517 59.1356 20.1463 58.533 20.4189C57.9448 20.6772 57.2417 20.8063 56.4239 20.8063ZM66.6388 20.5911C66.481 20.5911 66.3518 20.5408 66.2514 20.4404C66.151 20.34 66.1007 20.2108 66.1007 20.053V9.93761C66.1007 9.77978 66.151 9.65065 66.2514 9.55022C66.3518 9.44978 66.481 9.39956 66.6388 9.39956H69.1138C69.2717 9.39956 69.4008 9.44978 69.5012 9.55022C69.6017 9.65065 69.6519 9.77978 69.6519 9.93761V10.7555C70.0249 10.3107 70.5128 9.93761 71.1154 9.6363C71.718 9.33499 72.4282 9.18434 73.2461 9.18434C74.0783 9.18434 74.81 9.37086 75.4413 9.74392C76.087 10.117 76.5892 10.6694 76.9479 11.4011C77.3209 12.1185 77.5075 13.0009 77.5075 14.0483V20.053C77.5075 20.2108 77.4501 20.34 77.3353 20.4404C77.2349 20.5408 77.1129 20.5911 76.9694 20.5911H74.2576C74.1141 20.5911 73.985 20.5408 73.8702 20.4404C73.7698 20.34 73.7196 20.2108 73.7196 20.053V14.1775C73.7196 13.5031 73.5546 12.9866 73.2246 12.6279C72.9089 12.2548 72.4354 12.0683 71.8041 12.0683C71.2158 12.0683 70.7424 12.2548 70.3836 12.6279C70.0393 12.9866 69.8671 13.5031 69.8671 14.1775V20.053C69.8671 20.2108 69.8097 20.34 69.6949 20.4404C69.5945 20.5408 69.4725 20.5911 69.3291 20.5911H66.6388ZM84.0847 20.8063C83.396 20.8063 82.7718 20.6987 82.2122 20.4835C81.667 20.2539 81.1935 19.9239 80.7918 19.4934C80.4044 19.0486 80.1031 18.5178 79.8878 17.9008C79.6726 17.2695 79.5507 16.5521 79.522 15.7486C79.5076 15.4616 79.5004 15.2105 79.5004 14.9953C79.5004 14.7657 79.5076 14.5147 79.522 14.242C79.5507 13.4672 79.6726 12.7714 79.8878 12.1544C80.1031 11.5374 80.4044 11.0065 80.7918 10.5618C81.1792 10.117 81.6527 9.77979 82.2122 9.55022C82.7718 9.3063 83.396 9.18434 84.0847 9.18434C84.8021 9.18434 85.419 9.3063 85.9356 9.55022C86.4521 9.77979 86.8897 10.0811 87.2484 10.4541V5.84841C87.2484 5.69058 87.2986 5.56145 87.3991 5.46101C87.4995 5.36058 87.6286 5.31036 87.7865 5.31036H90.4122C90.5556 5.31036 90.6776 5.36058 90.778 5.46101C90.8928 5.56145 90.9502 5.69058 90.9502 5.84841V20.053C90.9502 20.2108 90.8928 20.34 90.778 20.4404C90.6776 20.5408 90.5556 20.5911 90.4122 20.5911H87.9802C87.8223 20.5911 87.6932 20.5408 87.5928 20.4404C87.4923 20.34 87.4421 20.2108 87.4421 20.053V19.3643C87.0978 19.7804 86.653 20.1248 86.1077 20.3974C85.5625 20.67 84.8882 20.8063 84.0847 20.8063ZM85.2469 17.9223C85.7347 17.9223 86.1149 17.8219 86.3875 17.621C86.6745 17.4058 86.8825 17.1332 87.0117 16.8032C87.1552 16.4732 87.2341 16.1145 87.2484 15.7271C87.2628 15.4401 87.2699 15.1675 87.2699 14.9092C87.2699 14.651 87.2628 14.3855 87.2484 14.1129C87.2341 13.7542 87.1552 13.4242 87.0117 13.1229C86.8682 12.8072 86.653 12.5561 86.366 12.3696C86.079 12.1687 85.706 12.0683 85.2469 12.0683C84.7734 12.0683 84.3931 12.1687 84.1062 12.3696C83.8336 12.5705 83.6399 12.8431 83.5251 13.1875C83.4103 13.5318 83.3386 13.912 83.3099 14.3281C83.2668 14.7729 83.2668 15.2177 83.3099 15.6625C83.3386 16.0786 83.4103 16.4588 83.5251 16.8032C83.6399 17.1475 83.8336 17.4201 84.1062 17.621C84.3931 17.8219 84.7734 17.9223 85.2469 17.9223ZM98.6521 20.8063C96.959 20.8063 95.6103 20.3471 94.606 19.4289C93.6016 18.5106 93.0779 17.1475 93.0348 15.3397C93.0348 15.2392 93.0348 15.1101 93.0348 14.9523C93.0348 14.7944 93.0348 14.6725 93.0348 14.5864C93.0779 13.4529 93.329 12.4844 93.7881 11.6809C94.2616 10.8631 94.9073 10.2461 95.7251 9.83C96.5573 9.39956 97.5258 9.18434 98.6306 9.18434C99.8932 9.18434 100.933 9.43543 101.751 9.93761C102.583 10.4398 103.208 11.1213 103.624 11.9822C104.04 12.8431 104.248 13.8259 104.248 14.9307V15.4473C104.248 15.6051 104.19 15.7342 104.076 15.8347C103.975 15.9351 103.853 15.9853 103.71 15.9853H96.8227C96.8227 15.9997 96.8227 16.0212 96.8227 16.0499C96.8227 16.0786 96.8227 16.1073 96.8227 16.136C96.8371 16.5521 96.9088 16.9323 97.038 17.2767C97.1671 17.621 97.368 17.8936 97.6406 18.0945C97.9132 18.2954 98.2432 18.3958 98.6306 18.3958C98.9176 18.3958 99.1543 18.3528 99.3408 18.2667C99.5417 18.1662 99.7067 18.0586 99.8358 17.9438C99.965 17.8147 100.065 17.7071 100.137 17.621C100.266 17.4775 100.367 17.3914 100.438 17.3627C100.525 17.3197 100.654 17.2982 100.826 17.2982H103.495C103.638 17.2982 103.753 17.3412 103.839 17.4273C103.939 17.4991 103.982 17.6067 103.968 17.7501C103.954 17.9941 103.832 18.2882 103.602 18.6326C103.373 18.9769 103.035 19.3213 102.591 19.6656C102.16 19.9956 101.615 20.2682 100.955 20.4835C100.295 20.6987 99.5273 20.8063 98.6521 20.8063ZM96.8227 13.8546H100.46V13.8116C100.46 13.3525 100.388 12.9507 100.245 12.6064C100.116 12.262 99.9076 11.9966 99.6206 11.81C99.348 11.6235 99.018 11.5303 98.6306 11.5303C98.2432 11.5303 97.9132 11.6235 97.6406 11.81C97.3823 11.9966 97.1814 12.262 97.038 12.6064C96.8945 12.9507 96.8227 13.3525 96.8227 13.8116V13.8546ZM110.441 20.8063C109.752 20.8063 109.128 20.6987 108.568 20.4835C108.023 20.2539 107.55 19.9239 107.148 19.4934C106.761 19.0486 106.459 18.5178 106.244 17.9008C106.029 17.2695 105.907 16.5521 105.878 15.7486C105.864 15.4616 105.857 15.2105 105.857 14.9953C105.857 14.7657 105.864 14.5147 105.878 14.242C105.907 13.4672 106.029 12.7714 106.244 12.1544C106.459 11.5374 106.761 11.0065 107.148 10.5618C107.535 10.117 108.009 9.77979 108.568 9.55022C109.128 9.3063 109.752 9.18434 110.441 9.18434C111.158 9.18434 111.775 9.3063 112.292 9.55022C112.808 9.77979 113.246 10.0811 113.605 10.4541V5.84841C113.605 5.69058 113.655 5.56145 113.755 5.46101C113.856 5.36058 113.985 5.31036 114.143 5.31036H116.768C116.912 5.31036 117.034 5.36058 117.134 5.46101C117.249 5.56145 117.306 5.69058 117.306 5.84841V20.053C117.306 20.2108 117.249 20.34 117.134 20.4404C117.034 20.5408 116.912 20.5911 116.768 20.5911H114.336C114.179 20.5911 114.049 20.5408 113.949 20.4404C113.849 20.34 113.798 20.2108 113.798 20.053V19.3643C113.454 19.7804 113.009 20.1248 112.464 20.3974C111.919 20.67 111.244 20.8063 110.441 20.8063ZM111.603 17.9223C112.091 17.9223 112.471 17.8219 112.744 17.621C113.031 17.4058 113.239 17.1332 113.368 16.8032C113.511 16.4732 113.59 16.1145 113.605 15.7271C113.619 15.4401 113.626 15.1675 113.626 14.9092C113.626 14.651 113.619 14.3855 113.605 14.1129C113.59 13.7542 113.511 13.4242 113.368 13.1229C113.224 12.8072 113.009 12.5561 112.722 12.3696C112.435 12.1687 112.062 12.0683 111.603 12.0683C111.13 12.0683 110.749 12.1687 110.462 12.3696C110.19 12.5705 109.996 12.8431 109.881 13.1875C109.766 13.5318 109.695 13.912 109.666 14.3281C109.623 14.7729 109.623 15.2177 109.666 15.6625C109.695 16.0786 109.766 16.4588 109.881 16.8032C109.996 17.1475 110.19 17.4201 110.462 17.621C110.749 17.8219 111.13 17.9223 111.603 17.9223ZM120.618 20.5911C120.46 20.5911 120.331 20.5408 120.23 20.4404C120.13 20.34 120.08 20.2108 120.08 20.053V6.06363C120.08 5.9058 120.13 5.77667 120.23 5.67623C120.331 5.5758 120.46 5.52558 120.618 5.52558H122.899C123.143 5.52558 123.315 5.58297 123.416 5.69776C123.53 5.79819 123.602 5.87711 123.631 5.9345L128.882 14.2205V6.06363C128.882 5.9058 128.933 5.77667 129.033 5.67623C129.133 5.5758 129.263 5.52558 129.42 5.52558H132.003C132.161 5.52558 132.29 5.5758 132.39 5.67623C132.491 5.77667 132.541 5.9058 132.541 6.06363V20.053C132.541 20.1965 132.491 20.3256 132.39 20.4404C132.29 20.5408 132.161 20.5911 132.003 20.5911H129.7C129.471 20.5911 129.298 20.5337 129.184 20.4189C129.083 20.3041 129.019 20.2252 128.99 20.1821L123.738 12.219V20.053C123.738 20.2108 123.688 20.34 123.588 20.4404C123.487 20.5408 123.358 20.5911 123.2 20.5911H120.618ZM140.477 20.8063C138.784 20.8063 137.436 20.3471 136.431 19.4289C135.427 18.5106 134.903 17.1475 134.86 15.3397C134.86 15.2392 134.86 15.1101 134.86 14.9523C134.86 14.7944 134.86 14.6725 134.86 14.5864C134.903 13.4529 135.154 12.4844 135.613 11.6809C136.087 10.8631 136.732 10.2461 137.55 9.83C138.383 9.39956 139.351 9.18434 140.456 9.18434C141.718 9.18434 142.759 9.43543 143.577 9.93761C144.409 10.4398 145.033 11.1213 145.449 11.9822C145.865 12.8431 146.073 13.8259 146.073 14.9307V15.4473C146.073 15.6051 146.016 15.7342 145.901 15.8347C145.8 15.9351 145.679 15.9853 145.535 15.9853H138.648C138.648 15.9997 138.648 16.0212 138.648 16.0499C138.648 16.0786 138.648 16.1073 138.648 16.136C138.662 16.5521 138.734 16.9323 138.863 17.2767C138.992 17.621 139.193 17.8936 139.466 18.0945C139.738 18.2954 140.068 18.3958 140.456 18.3958C140.743 18.3958 140.98 18.3528 141.166 18.2667C141.367 18.1662 141.532 18.0586 141.661 17.9438C141.79 17.8147 141.891 17.7071 141.962 17.621C142.091 17.4775 142.192 17.3914 142.264 17.3627C142.35 17.3197 142.479 17.2982 142.651 17.2982H145.32C145.463 17.2982 145.578 17.3412 145.664 17.4273C145.765 17.4991 145.808 17.6067 145.793 17.7501C145.779 17.9941 145.657 18.2882 145.427 18.6326C145.198 18.9769 144.861 19.3213 144.416 19.6656C143.985 19.9956 143.44 20.2682 142.78 20.4835C142.12 20.6987 141.353 20.8063 140.477 20.8063ZM138.648 13.8546H142.285V13.8116C142.285 13.3525 142.213 12.9507 142.07 12.6064C141.941 12.262 141.733 11.9966 141.446 11.81C141.173 11.6235 140.843 11.5303 140.456 11.5303C140.068 11.5303 139.738 11.6235 139.466 11.81C139.208 11.9966 139.007 12.262 138.863 12.6064C138.72 12.9507 138.648 13.3525 138.648 13.8116V13.8546ZM147.26 20.5911C147.131 20.5911 147.017 20.548 146.916 20.4619C146.83 20.3615 146.787 20.2467 146.787 20.1176C146.787 20.0745 146.794 20.0243 146.809 19.9669C146.823 19.8952 146.852 19.8306 146.895 19.7732L150.489 14.8447L147.217 10.2174C147.174 10.16 147.139 10.1026 147.11 10.0452C147.095 9.98783 147.088 9.93044 147.088 9.87305C147.088 9.74391 147.139 9.6363 147.239 9.55022C147.339 9.44978 147.454 9.39956 147.583 9.39956H150.209C150.396 9.39956 150.532 9.4426 150.618 9.52869C150.718 9.61478 150.79 9.6937 150.833 9.76544L152.835 12.5418L154.815 9.78696C154.872 9.71522 154.944 9.6363 155.03 9.55022C155.13 9.44978 155.274 9.39956 155.46 9.39956H157.979C158.108 9.39956 158.215 9.44978 158.301 9.55022C158.402 9.6363 158.452 9.74391 158.452 9.87305C158.452 9.93044 158.445 9.98783 158.43 10.0452C158.416 10.1026 158.387 10.16 158.344 10.2174L154.987 14.8447L158.624 19.7732C158.682 19.8306 158.717 19.888 158.732 19.9454C158.746 20.0028 158.753 20.0602 158.753 20.1176C158.753 20.2467 158.703 20.3615 158.603 20.4619C158.517 20.548 158.402 20.5911 158.258 20.5911H155.525C155.353 20.5911 155.224 20.5552 155.138 20.4835C155.052 20.3974 154.98 20.3185 154.922 20.2467L152.749 17.2982L150.553 20.2467C150.496 20.3041 150.424 20.3758 150.338 20.4619C150.252 20.548 150.116 20.5911 149.929 20.5911H147.26ZM166.09 20.5911C165.172 20.5911 164.375 20.4476 163.701 20.1606C163.041 19.8593 162.532 19.4002 162.173 18.7832C161.814 18.1519 161.635 17.3412 161.635 16.3512V12.219H159.956C159.798 12.219 159.662 12.1687 159.547 12.0683C159.447 11.9679 159.397 11.8387 159.397 11.6809V9.93761C159.397 9.77978 159.447 9.65065 159.547 9.55022C159.662 9.44978 159.798 9.39956 159.956 9.39956H161.635V5.84841C161.635 5.69058 161.685 5.56145 161.786 5.46101C161.9 5.36058 162.029 5.31036 162.173 5.31036H164.67C164.827 5.31036 164.956 5.36058 165.057 5.46101C165.157 5.56145 165.208 5.69058 165.208 5.84841V9.39956H167.898C168.056 9.39956 168.185 9.44978 168.285 9.55022C168.386 9.65065 168.436 9.77978 168.436 9.93761V11.6809C168.436 11.8387 168.386 11.9679 168.285 12.0683C168.185 12.1687 168.056 12.219 167.898 12.219H165.208V16.0499C165.208 16.5377 165.301 16.9251 165.487 17.2121C165.674 17.4991 165.99 17.6425 166.434 17.6425H168.092C168.249 17.6425 168.379 17.6928 168.479 17.7932C168.579 17.8936 168.63 18.0228 168.63 18.1806V20.053C168.63 20.2108 168.579 20.34 168.479 20.4404C168.379 20.5408 168.249 20.5911 168.092 20.5911H166.09Z" fill="white"/>
<g clip-path="url(#clip0_2151_12063)">
<path d="M4.59697 11.5596C3.94595 11.5334 3.23573 11.4854 2.54921 11.3019C1.30042 10.9701 0.826951 10.3238 1.14654 9.37617C1.35369 8.75605 1.7739 8.20581 2.24737 7.68178C3.36595 6.4372 4.72717 5.3411 6.17718 4.3105C7.36678 3.46768 8.60372 2.66417 9.82292 1.83881C9.87618 1.79951 9.93537 1.76457 10.0123 1.71654C9.69862 1.32788 9.38495 0.947956 9.06536 0.554932C11.048 0.554932 13.007 0.554932 15.0074 0.554932C14.2735 2.08773 13.5575 3.58559 12.8235 5.12712C12.4507 4.67296 12.0956 4.24936 11.7405 3.81267C11.705 3.82577 11.6754 3.83014 11.6458 3.84324C9.54474 4.90003 7.49106 5.99177 5.60902 7.25818C4.83963 7.77785 4.10574 8.32374 3.50798 8.95691C3.17656 9.31063 2.88655 9.68187 2.78594 10.1185C2.67349 10.5989 2.90431 10.9788 3.46655 11.2103C3.83942 11.3675 4.25371 11.4548 4.59697 11.5596Z" fill="white"/>
<path d="M27.5773 9.16431C28.246 9.27786 28.8615 9.40454 29.4179 9.65343C30.276 10.0377 30.5364 10.5967 30.1754 11.291C29.8321 11.9417 29.2284 12.4527 28.5775 12.9374C27.1393 14.0117 25.4881 14.8981 23.7895 15.7322C22.9609 16.1383 22.1086 16.5227 21.2682 16.92C21.2149 16.9462 21.1558 16.9724 21.0906 17.0074C21.286 17.3698 21.4753 17.7279 21.6825 18.1122C19.9781 17.8938 18.315 17.6798 16.6045 17.4615C17.516 16.2388 18.4097 15.0379 19.3388 13.7977C19.5756 14.23 19.7946 14.6274 20.0254 15.0466C20.5994 14.8457 21.1558 14.6536 21.7062 14.4527C23.4639 13.8107 25.2099 13.147 26.7841 12.2736C27.3169 11.981 27.8021 11.636 28.2697 11.291C28.4886 11.1294 28.6603 10.9111 28.7964 10.7015C29.0983 10.2343 28.9504 9.82372 28.3821 9.5137C28.1454 9.3827 27.8673 9.28659 27.5773 9.16431Z" fill="white"/>
<path d="M22.6297 6.08618C22.6297 7.64955 22.6297 9.16927 22.6297 10.6933C22.6237 10.6933 22.6179 10.6977 22.6119 10.6977C22.3279 9.82429 22.0438 8.95088 21.7538 8.05567C19.0135 9.81117 15.8532 10.8549 12.3672 11.4444C13.8586 14.6236 14.7109 17.8464 14.0125 21.2133C13.8468 17.4926 12.7637 13.9336 10.5029 10.5754C15.1962 10.0513 19.2917 8.66271 22.6297 6.08618Z" fill="white"/>
<path d="M18.9138 5.24243C18.9729 5.70969 19.0262 6.12892 19.0854 6.55251C19.1032 6.67915 19.0381 6.75776 18.9138 6.83636C17.5111 7.72285 15.9013 8.32984 14.1791 8.78399C12.2852 9.28624 10.3262 9.58754 8.33169 9.75783C8.29618 9.76223 8.26659 9.76656 8.18965 9.77968C10.0717 12.1117 11.5749 14.5397 12.1373 17.2341C10.7582 14.1554 8.76374 11.3343 5.72168 8.91499C6.17148 8.88882 6.58576 8.87138 7.00005 8.84081C10.5689 8.56568 13.966 7.90626 16.9785 6.40403C17.588 6.10272 18.1266 5.72716 18.7007 5.38654C18.7599 5.34723 18.8191 5.30356 18.9138 5.24243Z" fill="white"/>
</g>
<defs>
<clipPath id="clip0_2151_12063">
<rect width="30.3407" height="20.8432" fill="white" transform="translate(0.0107422 0.554932)"/>
</clipPath>
</defs>
</svg>
