<svg width="168" height="30" viewBox="0 0 168 30" fill="none" xmlns="http://www.w3.org/2000/svg">
<path d="M0.439453 13.915V13.3597C0.630083 12.4314 0.926389 11.6571 1.32837 11.0369C2.65864 8.98695 4.28728 7.07236 6.2143 5.29314C7.37742 4.21981 8.55504 3.14441 9.74717 2.06694C9.77638 2.04087 9.79548 2.00528 9.80115 1.9663C9.80683 1.92733 9.79873 1.88743 9.77825 1.85351L8.88934 0.398925C8.88378 0.389399 8.88076 0.378564 8.8806 0.367536C8.88043 0.356508 8.88313 0.345684 8.88841 0.336184C8.89369 0.326684 8.90135 0.318851 8.91062 0.313489C8.91989 0.308128 8.93042 0.30543 8.94114 0.30568H15.0599C15.074 0.305895 15.0878 0.309442 15.1003 0.316031C15.1127 0.322621 15.1234 0.332065 15.1315 0.343589C15.1396 0.355113 15.1448 0.368386 15.1468 0.382326C15.1488 0.396267 15.1474 0.410478 15.1428 0.423789L12.9091 6.76224C12.9042 6.7767 12.8952 6.78946 12.8833 6.79904C12.8714 6.80862 12.857 6.81463 12.8419 6.81637C12.8267 6.8181 12.8113 6.81549 12.7975 6.80885C12.7838 6.8022 12.7722 6.79178 12.7641 6.77881L11.7446 5.09629C11.7143 5.04656 11.6742 5.03758 11.6245 5.06936C8.91973 6.83476 6.56379 8.6789 4.55665 10.6018C3.5807 11.5383 0.83729 14.5967 3.28233 15.6017C3.54755 15.7094 3.80863 15.8185 4.06557 15.9291C4.1816 15.9788 4.17677 16.0023 4.05106 15.9995C2.54053 15.9684 0.72747 15.5727 0.439453 13.915Z" fill="white"/>
<path d="M40.2248 9.58204V12.9492C40.2248 13.0182 40.2593 13.0528 40.3284 13.0528H46.6897C46.7518 13.0528 46.785 13.0838 46.7891 13.146C46.8375 13.7414 46.8243 14.2276 46.7498 14.6047C46.5902 15.4087 45.7759 15.9661 44.9388 15.9599C43.2645 15.9502 41.7105 15.9495 40.2766 15.9578C40.2629 15.9578 40.2497 15.9632 40.24 15.973C40.2303 15.9827 40.2248 15.9958 40.2248 16.0096V23.3613C40.2248 23.3958 40.2075 23.4131 40.173 23.4131H36.866C36.8578 23.4131 36.8498 23.4115 36.8422 23.4083C36.8347 23.4052 36.8278 23.4006 36.822 23.3949C36.8163 23.3891 36.8117 23.3823 36.8086 23.3747C36.8054 23.3672 36.8038 23.3591 36.8038 23.3509C36.808 18.7717 36.8073 13.7704 36.8018 8.34709C36.7997 7.26548 37.6119 6.51953 38.6749 6.51953C42.2637 6.52644 45.6799 6.52851 48.9233 6.52575C48.9952 6.52575 49.0311 6.56166 49.0311 6.63349V9.37484C49.0311 9.44391 48.9966 9.47844 48.9275 9.47844H40.3284C40.2593 9.47844 40.2248 9.51297 40.2248 9.58204Z" fill="#635BFF"/>
<path d="M86.2727 11.8134V6.63532C86.2727 6.55244 86.3142 6.51307 86.3971 6.51721C86.7617 6.53655 87.1375 6.53586 87.5243 6.51514C88.6598 6.45505 89.5963 7.01036 89.5942 8.24117C89.5873 11.6656 89.5846 14.9277 89.586 18.0275C89.588 20.9015 88.1086 23.0026 85.2118 23.4543C84.1509 23.62 83.1128 23.6269 82.0975 23.475C77.5949 22.8036 76.9029 18.6367 77.4685 14.8448C77.8788 12.1118 79.3727 10.2801 82.2488 10.0708C83.912 9.95062 85.2139 10.5446 86.1546 11.8528C86.2334 11.9633 86.2727 11.9502 86.2727 11.8134ZM86.2562 17.0599C86.2976 14.9174 85.5641 12.6339 82.8559 13.125C80.8315 13.4897 80.6139 16.3284 80.8128 18.0234C81.018 19.7826 82.0519 20.9761 83.9935 20.686C85.7879 20.4166 86.223 18.6388 86.2562 17.0599Z" fill="#635BFF"/>
<path d="M114.353 11.7958V6.63017C114.353 6.55005 114.394 6.51206 114.475 6.5162C115.2 6.55143 116.191 6.3753 116.825 6.72134C117.498 7.09016 117.728 7.70971 117.726 8.45151C117.721 11.6121 117.718 14.7022 117.718 17.7219C117.718 18.0714 117.697 18.4237 117.656 18.7787C117.179 22.7819 114.197 23.8449 110.665 23.5341C107.453 23.2502 105.706 21.1947 105.474 18.0307C105.2 14.2906 106.071 10.1092 110.731 10.0594C112.203 10.0442 113.378 10.6341 114.253 11.829C114.32 11.9188 114.353 11.9077 114.353 11.7958ZM111.922 13.0722C108.899 12.8008 108.582 16.3295 109.011 18.4969C109.324 20.0737 110.406 20.9108 112.036 20.6974C114.506 20.3763 114.591 17.15 114.168 15.2437C113.871 13.9038 113.123 13.18 111.922 13.0722Z" fill="#635BFF"/>
<path d="M123.261 12.1549V23.3046C123.261 23.3737 123.227 23.4082 123.158 23.4082H119.905C119.833 23.4082 119.797 23.3723 119.797 23.3005C119.789 18.6936 119.788 14.0881 119.795 9.48397C119.797 8.23658 119.71 7.34145 120.715 6.74263C121.365 6.35308 122.522 6.55614 123.313 6.50848C123.349 6.50665 123.384 6.51453 123.416 6.5313C123.448 6.54807 123.474 6.57311 123.493 6.6038L130.114 17.7474C130.208 17.9062 130.255 17.8938 130.255 17.7101V6.57272C130.255 6.55898 130.26 6.5458 130.27 6.53608C130.279 6.52637 130.293 6.52091 130.306 6.52091H133.622C133.635 6.52091 133.649 6.52637 133.658 6.53608C133.668 6.5458 133.673 6.55898 133.673 6.57272V23.3046C133.673 23.3737 133.639 23.4082 133.57 23.4082H130.184C130.108 23.4082 130.051 23.3758 130.014 23.3109L123.367 12.1258C123.297 12.0057 123.261 12.0153 123.261 12.1549Z" fill="white"/>
<path d="M165.533 12.8059C165.521 15.3186 165.524 17.6877 165.543 19.9131C165.552 20.9222 166.855 20.6362 167.448 20.6673C167.515 20.6701 167.549 20.706 167.549 20.7751V23.1144C167.549 23.2042 167.504 23.2525 167.414 23.2595C166.102 23.3562 164.907 23.3334 163.83 23.1911C162.541 23.0191 162.199 21.9768 162.203 20.8331C162.218 16.4099 162.22 11.6808 162.209 6.64564C162.209 6.55309 162.255 6.50957 162.346 6.5151C163.076 6.55447 164.054 6.37212 164.688 6.7223C165.239 7.02482 165.556 7.54906 165.539 8.19761C165.524 8.89106 165.521 9.54169 165.531 10.1495C165.532 10.22 165.568 10.2545 165.637 10.2531H167.404C167.488 10.2531 167.535 10.2952 167.543 10.3795C167.673 11.9004 167.041 12.6705 165.649 12.6899C165.572 12.6899 165.533 12.7285 165.533 12.8059Z" fill="white"/>
<path d="M8.1209 13.4609C8.10883 13.4624 8.09729 13.4669 8.08735 13.4739C8.07741 13.4809 8.06939 13.4902 8.06402 13.5009C8.05865 13.5116 8.05611 13.5235 8.05664 13.5353C8.05717 13.5471 8.06074 13.5586 8.06703 13.5687C10.0313 16.8653 11.5274 20.2552 12.1241 23.9663C12.1269 23.9884 12.1179 24.0015 12.0972 24.0057C12.0751 24.0112 12.0606 24.0036 12.0537 23.9829C10.6053 19.6647 8.51667 15.7236 5.44379 12.3565C5.43205 12.3434 5.42424 12.3273 5.42126 12.31C5.41829 12.2926 5.42028 12.2748 5.42699 12.2586C5.43371 12.2423 5.44488 12.2283 5.45922 12.2182C5.47355 12.208 5.49047 12.2021 5.50803 12.2011C10.4395 11.9172 15.4394 10.4979 19.0013 7.16805C19.1947 6.98709 19.2997 7.02853 19.3163 7.29237C19.3771 8.2842 19.4081 8.78634 19.4095 8.79877C19.4166 8.91541 19.3957 9.03211 19.3485 9.13915C19.3012 9.2462 19.2291 9.34049 19.1381 9.41417C16.0921 11.8861 11.9936 13.0693 8.1209 13.4609Z" fill="#635BFF"/>
<path d="M12.4258 16.0021C13.9364 20.167 14.7279 24.709 14.1954 29.1328C14.1042 29.8884 14.0455 29.8857 14.0193 29.1245C13.8563 24.1999 12.6607 19.3948 10.4325 14.7092C10.3938 14.6263 10.4194 14.5779 10.5092 14.5641C15.3847 13.8182 19.6532 11.7751 23.0452 8.28369C23.1336 8.19252 23.1778 8.21048 23.1778 8.33756V14.5082C23.1778 14.9143 23.1301 14.9198 23.0348 14.5247L22.2308 11.1949C22.2282 11.1829 22.2225 11.1717 22.2142 11.1626C22.2059 11.1534 22.1953 11.1467 22.1836 11.1429C22.1718 11.1391 22.1593 11.1385 22.1472 11.1411C22.1351 11.1437 22.124 11.1494 22.1148 11.1576C19.4225 13.4328 16.2246 14.9896 12.5211 15.8281C12.4245 15.8502 12.3927 15.9082 12.4258 16.0021Z" fill="#635BFF"/>
<path d="M154.079 14.0587C154.117 14.1278 154.157 14.1285 154.197 14.0608C155.06 12.6007 155.894 11.1896 156.698 9.82756C156.984 9.3427 157.428 9.09198 158.03 9.0754C159.021 9.04915 160.046 9.0457 161.107 9.06504C161.113 9.06474 161.119 9.06616 161.125 9.06915C161.13 9.07214 161.135 9.07657 161.138 9.08196C161.141 9.08734 161.142 9.09346 161.142 9.09962C161.142 9.10578 161.14 9.11175 161.136 9.11684L156.281 16.5846C156.26 16.6179 156.248 16.6567 156.248 16.6965C156.248 16.7362 156.26 16.7751 156.281 16.8083L160.537 23.3333C160.571 23.383 160.557 23.4079 160.498 23.4079H156.638C156.607 23.408 156.577 23.3998 156.55 23.3841C156.524 23.3684 156.502 23.3459 156.487 23.3188L154.317 19.4295C154.263 19.3328 154.209 19.3328 154.153 19.4295L151.936 23.3084C151.898 23.3747 151.84 23.4079 151.764 23.4079H147.921C147.832 23.4079 147.811 23.3706 147.858 23.296L152.007 16.74C152.024 16.7126 152.033 16.6807 152.033 16.6481C152.033 16.6155 152.024 16.5834 152.007 16.5556L148.115 10.3622C148.068 10.2876 148.088 10.2503 148.175 10.2503H151.766C151.853 10.2503 151.918 10.2882 151.961 10.3642L154.079 14.0587Z" fill="white"/>
<path d="M70.142 13.0138C68.6273 12.8688 67.5685 13.5111 67.5726 15.0776C67.5782 17.7879 67.5795 20.5292 67.5768 23.3016C67.5768 23.3734 67.5402 23.4094 67.467 23.4094H64.2718C64.1972 23.4094 64.1599 23.3714 64.1599 23.2954C64.1544 21.0576 64.1551 18.6795 64.162 16.1613C64.1703 13.1381 64.9743 10.7718 68.2087 10.1875C69.2696 9.99688 70.3292 9.99481 71.3873 10.1813C74.2115 10.6786 75.3947 12.7216 75.3967 15.3863C75.3995 18.1878 75.4002 20.8234 75.3988 23.2933C75.3988 23.3652 75.3629 23.4025 75.2911 23.4052C74.0603 23.4508 72.011 23.6622 72.0234 21.8159C72.0428 19.0615 72.0393 16.7788 72.0131 14.9678C71.9965 13.853 71.2568 13.1216 70.142 13.0138Z" fill="#635BFF"/>
<path d="M94.9978 17.9037C95.1159 19.2879 95.7189 20.6078 97.2937 20.7197C98.2123 20.7832 99.0148 20.4738 99.7014 19.7914C100.019 19.475 100.401 19.3169 100.847 19.3169C101.64 19.3155 102.403 19.3141 103.137 19.3127C103.228 19.3127 103.262 19.3569 103.238 19.4453C102.797 21.1258 101.937 22.5348 100.275 23.1709C98.5348 23.8381 96.7881 23.854 95.0351 23.2186C91.7177 22.0168 91.2867 18.1109 91.6659 15.1292C91.9829 12.6469 93.2718 10.7634 95.8204 10.2329C97.8158 9.81645 100.248 10.0257 101.722 11.4555C103.274 12.9598 103.58 15.4981 103.458 17.6385C103.453 17.72 103.409 17.7608 103.328 17.7608H95.1283C95.033 17.7608 94.9895 17.8084 94.9978 17.9037ZM95.1677 15.382L99.834 15.3737C99.8499 15.3737 99.8652 15.3674 99.8765 15.3561C99.8878 15.3449 99.8941 15.3296 99.8941 15.3136V15.2722C99.8929 14.6133 99.641 13.9819 99.1938 13.5167C98.7465 13.0516 98.1405 12.7909 97.5091 12.7919H97.4843C97.1716 12.7925 96.8621 12.8572 96.5735 12.9826C96.2848 13.1079 96.0226 13.2914 95.8019 13.5225C95.5812 13.7535 95.4063 14.0277 95.2872 14.3294C95.1681 14.631 95.1071 14.9542 95.1076 15.2805V15.3219C95.1076 15.3379 95.114 15.3531 95.1252 15.3644C95.1365 15.3757 95.1518 15.382 95.1677 15.382Z" fill="#635BFF"/>
<path d="M139.416 17.8949C139.468 18.1504 139.517 18.4011 139.561 18.647C139.774 19.8053 140.545 20.6528 141.755 20.7191C142.903 20.7833 143.531 20.3399 144.356 19.6209C144.58 19.4261 144.855 19.3412 145.143 19.3329C145.9 19.3149 146.718 19.3101 147.596 19.3184C147.679 19.3197 147.71 19.3605 147.688 19.4406C147.24 21.0921 146.376 22.5715 144.725 23.1828C141.339 24.4343 137.141 23.4066 136.279 19.4116C135.888 17.591 135.893 15.8435 136.293 14.1693C136.798 12.0599 138.063 10.7621 140.089 10.2759C141.432 9.95401 142.767 9.96575 144.095 10.3111C147.458 11.1855 148.011 14.7163 147.918 17.6234C147.917 17.6612 147.901 17.697 147.874 17.7233C147.847 17.7496 147.81 17.7643 147.773 17.7643H139.524C139.434 17.7643 139.398 17.8078 139.416 17.8949ZM139.605 15.3939L144.275 15.369C144.289 15.369 144.303 15.3633 144.313 15.3532C144.323 15.3431 144.329 15.3294 144.329 15.3151V15.2758C144.325 14.6159 144.071 13.9843 143.623 13.5199C143.174 13.0556 142.567 12.7965 141.936 12.7996H141.919C141.606 12.8012 141.297 12.8671 141.009 12.9937C140.72 13.1202 140.459 13.3049 140.239 13.5371C140.019 13.7693 139.845 14.0446 139.727 14.3472C139.609 14.6498 139.549 14.9738 139.551 15.3006V15.34C139.551 15.3543 139.556 15.368 139.566 15.3781C139.577 15.3882 139.59 15.3939 139.605 15.3939Z" fill="white"/>
<path d="M56.2807 20.9634C57.7871 21.1085 58.848 20.4143 58.8335 18.8334C58.8128 16.5306 58.81 14.1871 58.8252 11.8028C58.8308 10.8925 59.2245 10.3918 60.0063 10.3006C60.6238 10.2274 61.3083 10.2115 62.0597 10.2529C62.1357 10.2557 62.1737 10.2958 62.1737 10.3731C62.2303 14.0365 62.2186 16.8815 62.1385 18.908C62.0825 20.2983 61.6308 21.9042 60.4062 22.619C58.1104 23.9638 55.1971 24.0073 52.8494 22.5672C51.5419 21.7653 51.1089 20.0434 51.1068 18.5557C51.1027 15.8703 51.1006 13.1407 51.1006 10.3669C51.1006 10.2909 51.1386 10.2529 51.2145 10.2529H54.3061C54.382 10.2529 54.42 10.2909 54.42 10.3669C54.4159 13.0178 54.4166 15.8724 54.4221 18.9307C54.4242 20.0994 55.0997 20.8516 56.2807 20.9634Z" fill="#635BFF"/>
<path d="M20.5623 20.8449C22.7739 19.8545 24.7423 18.8115 26.4677 17.7161C27.1197 17.303 27.7945 16.7843 28.4921 16.16C28.9438 15.7538 29.2877 15.3429 29.524 14.9271C30.1663 13.7937 29.4266 13.2073 28.4776 12.7183C28.2952 12.6243 28.3056 12.5946 28.5086 12.6292C29.4597 12.7887 30.7133 13.2363 31.1174 14.119C32.4953 17.1255 23.7367 22.4508 21.6853 23.6836C21.65 23.7053 21.6235 23.7387 21.6106 23.7778C21.5977 23.8169 21.5992 23.8592 21.6149 23.8971L22.1474 25.2232C22.1902 25.3268 22.1564 25.3689 22.0459 25.3496L16.9113 24.4503C16.8953 24.4477 16.8801 24.4412 16.867 24.4315C16.854 24.4218 16.8435 24.4091 16.8364 24.3945C16.8293 24.3799 16.8258 24.3638 16.8262 24.3475C16.8266 24.3313 16.8309 24.3153 16.8388 24.3011L19.6133 19.2618C19.6671 19.1651 19.7148 19.1679 19.7562 19.2701L20.3675 20.7662C20.4048 20.8601 20.4697 20.8863 20.5623 20.8449Z" fill="white"/>
</svg>
