<svg width="33" height="33" viewBox="0 0 33 33" fill="none" xmlns="http://www.w3.org/2000/svg">
<path fill-rule="evenodd" clip-rule="evenodd" d="M9.4707 6.47705C4.46153 6.47705 0.390625 8.50494 0.390625 11.002C0.390625 13.499 4.46153 15.5269 9.4707 15.5269C14.4799 15.5269 18.5508 13.499 18.5508 11.002C18.5508 8.50494 14.4799 6.47705 9.4707 6.47705ZM9.4707 17.797C6.2395 17.9377 3.05088 17.0184 0.390625 15.1789V16.662C0.390625 19.6736 4.93066 21.1869 9.4707 21.1869C14.0107 21.1869 18.5508 19.6736 18.5508 16.662V15.1789C15.8905 17.0184 12.7019 17.9377 9.4707 17.797ZM0.390625 20.8774C3.05088 22.7168 6.2395 23.6362 9.4707 23.4955C12.7019 23.6362 15.8905 22.7168 18.5508 20.8774V22.3605C18.5508 25.372 14.0107 26.8854 9.4707 26.8854C4.93066 26.8854 0.390625 25.372 0.390625 22.3605V20.8774Z" fill="url(#paint0_linear_2151_12439)"/>
<defs>
<linearGradient id="paint0_linear_2151_12439" x1="4.92905" y1="5.43901" x2="4.92905" y2="26.8854" gradientUnits="userSpaceOnUse">
<stop stop-color="#FF6996"/>
<stop offset="1" stop-color="#8100BE"/>
</linearGradient>
</defs>
</svg>
