<svg width="25" height="24" viewBox="0 0 25 24" fill="none" xmlns="http://www.w3.org/2000/svg"><path d="M18.4879 5.53813C18.2443 5.29426 17.8491 5.29426 17.6056 5.53813L5.56393 17.5798C5.32016 17.8234 5.32016 18.2183 5.56393 18.462C5.68576 18.5839 5.8455 18.6449 6.00514 18.6449C6.16477 18.6449 6.32451 18.5839 6.44624 18.462L18.4879 6.42034C18.7317 6.17668 18.7317 5.78179 18.4879 5.53813Z" fill="white"></path><path d="M8.34078 5.35962C6.7066 5.35962 5.37695 6.68937 5.37695 8.32355C5.37695 9.95773 6.7066 11.2874 8.34078 11.2874C9.97506 11.2874 11.3046 9.95762 11.3046 8.32345C11.3046 6.68927 9.97496 5.35962 8.34078 5.35962ZM8.34078 10.0394C7.39459 10.0394 6.62486 9.26953 6.62486 8.32345C6.62486 7.37736 7.3947 6.60753 8.34078 6.60753C9.28697 6.60753 10.0567 7.37736 10.0567 8.32345C10.0567 9.26953 9.28697 10.0394 8.34078 10.0394Z" fill="white"></path><path d="M15.7077 12.7166C14.0735 12.7166 12.7439 14.0462 12.7439 15.6804C12.7439 17.3146 14.0735 18.6442 15.7077 18.6442C17.3419 18.6442 18.6716 17.3147 18.6716 15.6804C18.6716 14.0461 17.3419 12.7166 15.7077 12.7166ZM15.7077 17.3962C14.7615 17.3962 13.9918 16.6264 13.9918 15.6803C13.9918 14.7342 14.7616 13.9644 15.7077 13.9644C16.6538 13.9644 17.4236 14.7342 17.4236 15.6803C17.4236 16.6264 16.6539 17.3962 15.7077 17.3962Z" fill="white"></path></svg>