<svg width="33" height="33" viewBox="0 0 33 33" fill="none" xmlns="http://www.w3.org/2000/svg">
<path d="M11.5208 3.53003L15.7179 3.52998L15.7179 7.7271L11.5208 7.72715L11.5208 3.53003Z" fill="#ACB2DF"/>
<path d="M5.25244 6.41724L8.55684 4.50949L10.4646 7.8139L7.16018 9.72164L5.25244 6.41724Z" fill="#ACB2DF"/>
<path d="M7.46313 25.3884L9.44581 26.5331L8.30111 28.5158L6.31844 27.3711L7.46313 25.3884Z" fill="#ACB2DF" fill-opacity="0.7"/>
<path d="M12.635 27.4941L14.5428 27.4941L14.5428 29.4019L12.635 29.4019L12.635 27.4941Z" fill="#ACB2DF" fill-opacity="0.6"/>
<path d="M18.3069 26.6814L19.6286 25.9183L20.3917 27.2401L19.07 28.0032L18.3069 26.6814Z" fill="#ACB2DF" fill-opacity="0.5"/>
<path d="M3.06348 8.96973L6.03748 10.6868L4.32044 13.6608L1.34643 11.9437L3.06348 8.96973Z" fill="#ACB2DF" fill-opacity="0.95"/>
<path d="M0.580566 15.4937L3.63302 15.4936L3.63306 18.5461L0.580605 18.5461L0.580566 15.4937Z" fill="#ACB2DF" fill-opacity="0.9"/>
<path d="M1.92725 22.2522L4.24033 20.9168L5.57575 23.2299L3.26267 24.5653L1.92725 22.2522Z" fill="#ACB2DF" fill-opacity="0.8"/>
<path d="M23.3074 21.9802L24.2987 22.5526L23.7264 23.5439L22.735 22.9716L23.3074 21.9802Z" fill="#ACB2DF" fill-opacity="0.4"/>
<path d="M24.72 16.6719L25.4831 16.6719L25.4831 17.435L24.72 17.435L24.72 16.6719Z" fill="#ACB2DF" fill-opacity="0.3"/>
<path d="M23.1934 11.2573L23.5238 11.0666L23.7146 11.397L23.3841 11.5878L23.1934 11.2573Z" fill="#ACB2DF" fill-opacity="0.2"/>
</svg>
