<svg width="45" height="44" viewBox="0 0 45 44" fill="none" xmlns="http://www.w3.org/2000/svg">
<path d="M23.5297 21.5592L29.338 29.8672H26.9543L22.2145 23.0878V23.0874L21.5187 22.0922L15.9819 14.1724H18.3657L22.8338 20.564L23.5297 21.5592Z" fill="white"/>
<path d="M32.7829 9.09473H12.5501C11.0099 9.09473 9.76123 10.3434 9.76123 11.8836V32.1164C9.76123 33.6566 11.0099 34.9053 12.5501 34.9053H32.7829C34.3231 34.9053 35.5718 33.6566 35.5718 32.1164V11.8836C35.5718 10.3434 34.3231 9.09473 32.7829 9.09473ZM26.224 30.9826L21.4277 24.0022L15.4227 30.9826H13.8707L20.7386 22.9996L13.8707 13.0042H19.109L23.6508 19.6142L29.3371 13.0042H30.8891L24.3401 20.6169H24.3397L31.4623 30.9826H26.224Z" fill="white"/>
</svg>
