<svg width="33" height="33" viewBox="0 0 33 33" fill="none" xmlns="http://www.w3.org/2000/svg">
<path fill-rule="evenodd" clip-rule="evenodd" d="M8.09751 22.3154V13.1983C8.09751 11.9752 7.09685 10.9746 5.87382 10.9746H5.13355V5.19295C5.13355 4.63702 4.79999 4.30347 4.24407 4.30347C3.68814 4.30347 3.35459 4.74821 3.35459 5.19295V10.9746H2.61432C1.39129 10.9746 0.390625 11.9752 0.390625 13.1983V22.3154C0.390625 23.5385 1.39129 24.5391 2.61432 24.5391H3.35459V28.1688C3.35459 28.7248 3.68814 29.0583 4.24407 29.0583C4.79999 29.0583 5.13355 28.6136 5.13355 28.1688V24.5391H5.87382C7.09685 24.5391 8.09751 23.5385 8.09751 22.3154ZM13.3751 11.9743L13.3751 19.2364C13.3751 20.4595 14.3758 21.4601 15.5988 21.4601H16.3391V28.1692C16.3391 28.7252 16.6727 29.0587 17.2286 29.0587C17.7845 29.0587 18.1181 28.614 18.1181 28.1692L18.1181 21.4601H18.8583C20.0814 21.4601 21.082 20.4595 21.082 19.2364L21.082 11.9743C21.082 10.7512 20.0814 9.75058 18.8583 9.75058L18.1181 9.75057V6.12086C18.1181 5.56493 17.7845 5.23138 17.2286 5.23138C16.6727 5.23138 16.3391 5.67612 16.3391 6.12086V9.75057H15.5988C14.3758 9.75057 13.3751 10.7512 13.3751 11.9743Z" fill="url(#paint0_linear_2151_12449)"/>
<defs>
<linearGradient id="paint0_linear_2151_12449" x1="11.2363" y1="5.20121" x2="11.2363" y2="28.1611" gradientUnits="userSpaceOnUse">
<stop stop-color="#AA84FF"/>
<stop offset="1" stop-color="#4910E7"/>
</linearGradient>
</defs>
</svg>
