<svg width="44" height="44" viewBox="0 0 44 44" fill="none" xmlns="http://www.w3.org/2000/svg">
<path d="M35.9481 15.9301C35.9481 15.9301 35.6706 13.8361 34.8175 12.9146C33.7349 11.7066 32.5216 11.6994 31.9656 11.6309C27.9822 11.3223 22.0062 11.3223 22.0062 11.3223H21.9928C21.9928 11.3223 16.0177 11.3223 12.0352 11.6309C11.4783 11.6985 10.2667 11.7057 9.18326 12.9146C8.33018 13.8361 8.05175 15.9301 8.05175 15.9301C8.05175 15.9301 7.76709 18.3871 7.76709 20.844V23.1471C7.76709 25.6058 8.05175 28.0619 8.05175 28.0619C8.05175 28.0619 8.32929 30.155 9.18237 31.0748C10.2658 32.2828 11.6873 32.2463 12.3207 32.3726C14.598 32.6057 21.9999 32.6777 21.9999 32.6777C21.9999 32.6777 27.9813 32.6671 31.9656 32.362C32.5216 32.2908 33.7349 32.2837 34.8175 31.0748C35.6697 30.155 35.9481 28.0619 35.9481 28.0619C35.9481 28.0619 36.2328 25.6049 36.2328 23.1471V20.844C36.2328 18.3871 35.9481 15.9301 35.9481 15.9301ZM18.4453 27.3387V16.6605L27.3435 21.9996L18.4453 27.3387Z" fill="white"/>
</svg>
